<svg xmlns="http://www.w3.org/2000/svg" viewBox="0 0 32 32" id="hair">
    <path fill="#333"
        d="M15.636 3c-1.577 0-3.264.131-4.917.379-.321.016-7.895.501-10.507 10.645-.649 2.529.358 7.823 1.103 9.749.263.679.732 2.131 1.355 4.2A1.43 1.43 0 0 0 4.047 29a1.442 1.442 0 0 0 1.434-1.532c-.141-2.34-.107-5.616.849-7.92.019-.043.049-.151.062-.196a59.78 59.78 0 0 0 .733-2.961c.4.28.78.568 1.174.867 2.084 1.582 4.239 3.217 10.092 4.338.062.012.216.027.279.027.625 0 1.175-.408 1.372-1.014.069-.213.088-.432.062-.643.906.533 1.766.985 2.448 1.214a1.468 1.468 0 0 0 1.862-1.005c1.331.99 2.562 2.603 2.634 5.195.001.033.008.106.012.139l.294 2.151A1.55 1.55 0 0 0 28.878 29c.729 0 1.347-.5 1.503-1.218.536-2.467.931-4.158 1.114-4.764 1.436-4.802-.403-12.772-2.758-14.843C28.11 7.252 24.722 3 15.636 3zM29.58 22.442c-.123.405-.313 1.168-.567 2.278-.269-3.091-1.971-5.576-4.842-7.036a1.46 1.46 0 0 0-.664-.162c-.611 0-1.16.4-1.367.996-.03.086-.052.174-.066.262-.985-.52-2.193-1.287-3.224-1.941a69.687 69.687 0 0 0-1.613-1.005c-.776-.461-1.822-.061-2.119.785a1.456 1.456 0 0 0 .475 1.635c.246.197.646.545 1.066.913-3.825-.976-5.448-2.208-7.152-3.501-.616-.467-1.252-.951-1.992-1.416a1.448 1.448 0 0 0-.771-.224c-.714 0-1.318.516-1.437 1.228-.203 1.221-.78 3.333-.843 3.564l-.006.024c-.608 1.501-.889 3.287-.99 5.012a20.939 20.939 0 0 0-.289-.802c-.729-1.886-1.512-6.653-1.03-8.528 2.23-8.664 8.411-9.13 8.764-9.155A32.461 32.461 0 0 1 15.636 5c8.741 0 11.378 4.18 11.482 4.351.065.112.152.21.254.289 1.665 1.277 3.45 8.646 2.208 12.802z"></path>
</svg>