<svg
    x="0px" y="0px" viewBox="0 0 66 82.5" style="enable-background:new 0 0 66 66;"
>
    <path
        d="M54.99,39.02l1.78-4.04c0.97-2.72,1.47-5.58,1.47-8.5c0-13.92-11.31-25.24-25.22-25.24c0,0,0,0,0,0s0,0,0,0h0  c-0.01,0-0.01,0-0.02,0c-9.37,0.01-17.86,5.16-22.22,13.3c-0.61,1.14-1.09,2.35-1.5,3.58l-0.25,0.74c-0.41,1.23-0.75,2.48-0.95,3.75  c-0.2,1.27-0.29,2.57-0.29,3.86c0,4.47,1.17,8.67,3.22,12.31h0.23c-1.22,1.3-2.15,2.87-2.68,4.63c-0.37,1.23-0.62,2.76-0.71,4.43  c-0.06,1.09-0.02,2.18,0.06,3.27l0.1,1.28c0.09,1.13,0.22,2.26,0.47,3.37c1.04,4.74,3.17,7.89,5.97,8.74  c0.57,0.17,1.14,0.25,1.71,0.25c4.13,0,8.17-4.07,9.86-6c1.03-1.18,2.51-1.85,4.06-1.85h5.9c1.56,0,3.04,0.67,4.06,1.85  c1.92,2.2,6.89,7.17,11.57,5.76c1.82-0.55,3.37-2.08,4.52-4.43c0.25-0.52,0.44-1.06,0.61-1.61l0.66-2.16  c0.15-0.47,0.27-0.95,0.36-1.44c0.73-3.96,0.64-8.48-0.27-11.45C56.97,41.76,56.11,40.27,54.99,39.02z M55.35,34.48l-1.63,3.3  c-0.6-0.5-1.26-0.94-1.97-1.32c-1.52-0.81-3.16-1.26-4.83-1.36c0.53-2.47,0.84-5.11,0.89-7.87h8.89  C56.62,29.72,56.18,32.15,55.35,34.48z M56.71,25.73h-8.89c-0.07-4.12-0.72-8-1.83-11.41h7.38C55.38,17.69,56.58,21.58,56.71,25.73z   M52.39,12.83h-6.93c-1.52-4-3.69-7.23-6.25-9.25C44.61,5.04,49.25,8.37,52.39,12.83z M33.75,2.79c4.19,0.42,7.86,4.29,10.14,10.04  H33.75V2.79z M33.75,14.33h10.69c1.13,3.36,1.8,7.25,1.88,11.41H33.75V14.33z M33.75,31.7v-4.46h12.55  c-0.05,2.77-0.37,5.42-0.91,7.88c-0.87,0.06-1.74,0.21-2.6,0.47c-0.61,0.18-1.21,0.42-1.78,0.7c-1.24,0.61-2.46,1-3.65,1.2v-1.19  c0-1.14-0.92-2.06-2.06-2.06h-1.55V31.7z M35.3,35.73c0.31,0,0.56,0.25,0.56,0.56v1.3h-6.31c-1.47-0.11-3-0.53-4.57-1.3  c-0.57-0.28-1.17-0.52-1.78-0.7c-0.8-0.24-1.6-0.39-2.41-0.46c-1.12-2.41-1.09-6.51-1.11-7.89h12.56v4.46v2.53h-1.55  c-1.14,0-2.06,0.92-2.06,2.06c0,0.41,0.34,0.75,0.75,0.75s0.75-0.34,0.75-0.75c0-0.31,0.25-0.56,0.56-0.56H35.3z M19.68,25.73  c0.07-4.16,0.75-8.05,1.88-11.41h10.7v11.41H19.68z M32.25,12.83H22.11c2.28-5.75,5.96-9.63,10.15-10.04V12.83z M26.77,3.59  c-2.55,2.02-4.72,5.24-6.23,9.24h-6.95C16.78,8.29,21.44,5.04,26.77,3.59z M9.51,23.15c0.19-1.36,0.55-2.7,0.99-4l0.09-0.26  c0.52-1.57,1.17-3.1,2.02-4.53l0.02-0.03h7.39c-1.1,3.4-1.76,7.28-1.83,11.41H9.29C9.32,24.87,9.39,24,9.51,23.15z M9.3,27.23h8.9  c0.02,1.44,0.17,4.09,0.94,7.87c-1.68,0.1-3.34,0.54-4.87,1.36c-0.74,0.4-1.43,0.87-2.06,1.4C10.45,34.69,9.42,31.08,9.3,27.23z   M56.27,54.56c-0.09,0.48-0.21,0.95-0.36,1.42l-0.54,1.76c-0.24,0.78-0.52,1.55-0.92,2.26c-0.74,1.32-1.81,2.61-3.3,3.06  c-2.67,0.8-6.41-1.18-10.01-5.32c-1.3-1.5-3.2-2.35-5.18-2.35h-5.9c-1.98,0-3.88,0.86-5.18,2.35c-3.6,4.14-7.34,6.13-10.01,5.32  c-2.2-0.67-3.97-3.39-4.9-7.43c-0.26-1.15-0.41-2.33-0.5-3.51l-0.07-0.9c-0.11-1.41-0.14-2.83,0-4.24c0.11-1.17,0.31-2.24,0.58-3.13  c0.8-2.62,2.57-4.78,4.99-6.07s5.19-1.56,7.82-0.76c0.53,0.16,1.05,0.36,1.55,0.61c1.7,0.83,3.37,1.3,4.99,1.44  c0.02,0,0.05,0.01,0.07,0.01h0.15c0.24,0.02,0.48,0.05,0.72,0.05h5.48c0.24,0,0.48-0.03,0.72-0.05h0.15c0.03,0,0.05-0.01,0.07-0.01  c1.62-0.14,3.29-0.61,4.99-1.44c0.5-0.25,1.02-0.45,1.55-0.61c2.62-0.8,5.4-0.53,7.82,0.77c2.42,1.29,4.19,3.45,4.99,6.07  C56.87,46.61,56.96,50.83,56.27,54.56z" />
    <path
        d="M23.9,47.23h-1.86v-1.86c0-0.72-0.58-1.3-1.3-1.3h-2.75c-0.72,0-1.3,0.58-1.3,1.3v1.86h-1.86c-0.72,0-1.3,0.58-1.3,1.3v2.75  c0,0.72,0.58,1.3,1.3,1.3h1.86v1.86c0,0.72,0.58,1.3,1.3,1.3h2.75c0.72,0,1.3-0.58,1.3-1.3v-1.86h1.86c0.72,0,1.3-0.58,1.3-1.3  v-2.75C25.2,47.82,24.62,47.23,23.9,47.23z M23.7,51.09h-2.41c-0.41,0-0.75,0.34-0.75,0.75v2.41h-2.35v-2.41  c0-0.41-0.34-0.75-0.75-0.75h-2.41v-2.35h2.41c0.41,0,0.75-0.34,0.75-0.75v-2.41h2.35v2.41c0,0.41,0.34,0.75,0.75,0.75h2.41V51.09z" />
    <path
        d="M46.25,47.69c1.41,0,2.56-1.14,2.56-2.55c0-1.41-1.15-2.56-2.56-2.56s-2.56,1.15-2.56,2.56  C43.69,46.54,44.84,47.69,46.25,47.69z M46.25,44.08c0.58,0,1.06,0.47,1.06,1.06c0,0.58-0.47,1.05-1.06,1.05s-1.06-0.47-1.06-1.05  C45.19,44.55,45.67,44.08,46.25,44.08z" />
    <path
        d="M46.25,52.13c-1.41,0-2.56,1.15-2.56,2.56c0,1.41,1.15,2.55,2.56,2.55s2.56-1.14,2.56-2.55  C48.81,53.28,47.66,52.13,46.25,52.13z M46.25,55.74c-0.58,0-1.06-0.47-1.06-1.05c0-0.58,0.47-1.06,1.06-1.06s1.06,0.47,1.06,1.06  C47.31,55.27,46.83,55.74,46.25,55.74z" />
    <path
        d="M51.02,47.35c-1.41,0-2.55,1.15-2.55,2.56s1.14,2.56,2.55,2.56c1.41,0,2.56-1.15,2.56-2.56S52.43,47.35,51.02,47.35z   M51.02,50.97c-0.58,0-1.05-0.47-1.05-1.06s0.47-1.06,1.05-1.06c0.58,0,1.06,0.47,1.06,1.06S51.6,50.97,51.02,50.97z" />
    <path
        d="M41.47,47.35c-1.41,0-2.55,1.15-2.55,2.56s1.14,2.56,2.55,2.56c1.41,0,2.56-1.15,2.56-2.56S42.88,47.35,41.47,47.35z   M41.47,50.97c-0.58,0-1.05-0.47-1.05-1.06s0.47-1.06,1.05-1.06c0.58,0,1.06,0.47,1.06,1.06S42.05,50.97,41.47,50.97z" />
</svg>